# xmcd
#
# Track frame offsets:
#	150
#	22641
#	36516
#	53531
#	71627
#	83396
#	102726
#	120526
#	137142
#	153865
#	170991
#	187319
#	213063
#	234099
#	251707
#
# Disc length: 3579 seconds
#
# Revision: 1
# Processed by: cddbd v1.5.1PL0 Copyright (c) Steve Scherf et al.
# Submitted via: audiograbber 1.81.03
#
DISCID=c60df90f
DTITLE=Hyrni Skolcanie - Zabawa na goralska nutke
DYEAR=1900
DGENRE=
TTITLE0=Z pod tego jawora
TTITLE1=Moje dziywce
TTITLE2=Kawalerskie czasy
TTITLE3=Ty dziywcynko moja
TTITLE4=Leca gasecki
TTITLE5=Zostawil dziewczyne
TTITLE6=Na zielonej lacie
TTITLE7=Bo cie mama wychowala
TTITLE8=Kasiu, Kasiu
TTITLE9=Maryna we mlynie
TTITLE10=Pepita
TTITLE11=Szesciolatek
TTITLE12=Jas koniusia pojil
TTITLE13=Tyrol
TTITLE14=Maria Helena
EXTD=
EXTT0=
EXTT1=
EXTT2=
EXTT3=
EXTT4=
EXTT5=
EXTT6=
EXTT7=
EXTT8=
EXTT9=
EXTT10=
EXTT11=
EXTT12=
EXTT13=
EXTT14=
PLAYORDER=
